<?xml version="1.0" standalone="no"?>
<!DOCTYPE svg PUBLIC "-//W3C//DTD SVG 20010904//EN"
 "http://www.w3.org/TR/2001/REC-SVG-20010904/DTD/svg10.dtd">
<svg version="1.0" xmlns="http://www.w3.org/2000/svg"
 width="788.000000pt" height="788.000000pt" viewBox="0 0 788.000000 788.000000"
 preserveAspectRatio="xMidYMid meet">
<metadata>
Created by potrace 1.14, written by Peter Selinger 2001-2017
</metadata>
<g transform="translate(0.000000,788.000000) scale(0.100000,-0.100000)"
fill="#000000" stroke="none">
<path d="M3729 5944 c-1 -5 -1 -13 0 -17 1 -4 -4 -7 -11 -5 -7 1 -28 -6 -47
-16 -22 -12 -31 -13 -25 -4 6 10 5 11 -8 1 -8 -7 -18 -10 -21 -6 -4 3 -9 -2
-13 -11 -5 -13 -9 -14 -20 -5 -12 10 -13 8 -8 -7 4 -10 3 -16 -1 -11 -5 4 -17
-1 -28 -10 -11 -10 -17 -12 -13 -5 11 18 -5 15 -21 -5 -9 -11 -11 -12 -7 -3 6
12 4 12 -12 -1 -10 -9 -25 -14 -33 -11 -8 2 -11 0 -7 -6 3 -5 -1 -13 -10 -16
-10 -4 -13 -2 -8 7 6 9 5 9 -8 0 -8 -7 -19 -9 -24 -5 -4 4 -3 0 4 -9 11 -15 9
-16 -18 -14 -23 2 -30 -1 -26 -11 3 -9 0 -11 -11 -7 -12 5 -14 3 -8 -7 5 -8 4
-11 -3 -6 -6 3 -14 2 -17 -4 -5 -8 -11 -8 -20 0 -9 7 -16 6 -26 -7 -13 -17
-13 -17 6 -3 19 14 19 14 6 -3 -10 -13 -17 -15 -27 -6 -11 9 -15 7 -20 -5 -3
-9 -10 -14 -14 -11 -5 3 -13 -3 -19 -12 -8 -14 -11 -15 -11 -3 0 12 -3 12 -11
-2 -5 -9 -16 -15 -24 -12 -8 4 -18 -1 -21 -10 -3 -9 -10 -13 -15 -10 -5 3 -9
0 -9 -5 0 -6 -5 -11 -11 -11 -5 0 -7 5 -3 12 4 7 3 8 -4 4 -7 -4 -12 -15 -12
-24 0 -15 -2 -15 -10 -2 -8 12 -10 12 -10 1 0 -8 -7 -11 -20 -8 -11 3 -18 0
-17 -7 1 -6 -5 -11 -13 -11 -8 0 -21 -7 -28 -15 -10 -11 -12 -11 -6 -1 5 9 3
12 -4 7 -7 -4 -12 -14 -12 -22 0 -8 -5 -14 -11 -14 -5 0 -8 4 -5 8 3 5 -1 9
-9 9 -8 0 -13 -2 -11 -5 3 -2 -9 -16 -26 -30 -21 -18 -33 -23 -36 -14 -2 6 -8
12 -13 12 -6 0 -8 -3 -6 -7 3 -5 -1 -13 -8 -20 -11 -10 -15 -10 -19 0 -3 7 -7
3 -11 -10 -4 -13 -12 -20 -21 -16 -8 3 -21 0 -29 -7 -8 -6 -19 -9 -24 -5 -6 3
-8 0 -5 -8 4 -10 -1 -15 -13 -14 -10 1 -17 -4 -15 -11 1 -8 -2 -11 -9 -6 -6 3
-15 0 -20 -7 -7 -11 -9 -11 -9 -1 0 7 -5 10 -10 7 -6 -4 -7 -11 -4 -17 4 -6 2
-8 -4 -4 -5 3 -13 0 -15 -6 -4 -10 -6 -10 -6 0 -1 6 -6 12 -12 12 -5 0 -7 -4
-4 -10 3 -5 1 -10 -5 -10 -6 0 -8 -5 -4 -12 5 -8 0 -7 -11 2 -15 12 -17 12
-10 1 6 -11 2 -13 -18 -9 -14 3 -26 2 -25 -1 2 -20 -4 -30 -15 -25 -7 2 -28
-9 -47 -26 -33 -30 -43 -34 -68 -31 -7 1 -15 -5 -18 -13 -3 -9 -10 -13 -15
-10 -5 3 -9 0 -9 -7 0 -7 -3 -9 -7 -6 -3 4 -11 -1 -18 -10 -9 -13 -14 -13 -20
-3 -6 9 -4 11 5 5 9 -5 11 -4 6 4 -10 16 -29 3 -22 -16 3 -8 2 -11 -3 -8 -5 3
-12 1 -16 -5 -4 -6 -11 -7 -17 -4 -8 5 -9 1 -4 -11 5 -15 4 -16 -9 -5 -14 11
-19 7 -16 -12 0 -4 -9 -5 -20 -3 -15 3 -19 0 -15 -11 5 -12 2 -13 -17 -3 -20
11 -21 11 -8 -4 12 -15 11 -17 -3 -17 -10 0 -14 -4 -11 -10 3 -5 -2 -10 -12
-10 -12 0 -14 -3 -6 -8 8 -5 9 -13 3 -22 -13 -21 -12 -33 2 -24 7 4 8 3 4 -5
-4 -6 -11 -9 -16 -6 -4 3 -14 -3 -21 -12 -10 -12 -10 -14 -1 -9 16 10 15 -2
-2 -20 -11 -11 -16 -11 -20 -1 -3 6 -4 3 -1 -9 5 -21 -27 -69 -39 -57 -3 3 -6
4 -6 0 0 -3 8 -14 17 -23 15 -15 15 -17 2 -12 -17 7 -52 -25 -41 -38 4 -4 -1
-4 -10 -1 -12 4 -15 2 -11 -9 3 -7 0 -14 -7 -14 -6 0 -8 -4 -5 -10 3 -5 -1
-10 -9 -10 -8 0 -18 -5 -22 -12 -5 -7 -2 -9 7 -4 8 4 5 1 -5 -8 -10 -8 -23
-13 -27 -10 -5 3 -6 -1 -3 -9 3 -8 0 -18 -7 -23 -8 -5 -10 -3 -4 7 7 11 6 12
-7 2 -8 -7 -18 -10 -22 -6 -4 4 -4 -1 0 -11 6 -16 3 -17 -17 -11 -13 3 -19 3
-13 -2 8 -5 4 -14 -14 -27 -14 -11 -22 -14 -18 -8 5 8 2 10 -8 6 -9 -3 -14
-10 -11 -14 3 -5 1 -11 -5 -15 -5 -3 -10 -1 -10 5 0 7 -5 6 -14 -2 -8 -7 -11
-17 -8 -23 3 -5 -3 -3 -13 5 -17 13 -18 13 -13 -1 5 -13 0 -15 -20 -13 -27 3
-55 -12 -47 -25 2 -4 -2 -8 -10 -8 -8 0 -12 3 -10 7 2 4 -2 7 -10 7 -8 0 -12
-3 -10 -7 2 -3 -5 -12 -17 -19 -11 -7 -17 -8 -13 -2 3 6 1 11 -4 11 -6 0 -11
-5 -11 -11 0 -5 -4 -7 -10 -4 -5 3 -10 0 -10 -7 0 -9 -3 -9 -10 2 -5 8 -10 10
-10 4 0 -7 -7 -15 -16 -18 -8 -3 -13 -2 -10 3 3 5 -5 8 -18 7 -20 -1 -22 -4
-13 -15 10 -12 9 -12 -10 -2 -18 9 -23 9 -24 -1 0 -7 -4 -4 -9 7 -8 19 -9 19
-9 1 -1 -15 -4 -16 -16 -6 -12 10 -16 9 -21 -4 -6 -15 -8 -15 -20 1 -9 11 -13
13 -12 4 2 -7 -3 -16 -11 -19 -8 -2 -11 0 -8 5 9 15 -136 3 -152 -13 -2 -2
-11 2 -19 9 -13 10 -14 9 -3 -11 11 -21 9 -23 -18 -28 -17 -4 -28 -10 -25 -15
3 -5 -1 -9 -9 -9 -8 0 -18 -7 -21 -16 -4 -9 -13 -14 -22 -10 -8 3 -13 2 -10
-3 6 -9 -23 -26 -38 -22 -5 1 -4 -5 3 -13 11 -13 9 -15 -9 -11 -16 3 -20 0
-16 -10 3 -9 0 -12 -10 -8 -8 3 -14 -1 -14 -10 0 -10 -7 -14 -23 -10 -18 4
-19 3 -7 -6 13 -9 12 -11 -3 -11 -10 0 -15 -4 -12 -10 3 -6 -1 -7 -9 -4 -9 4
-18 -1 -22 -10 -3 -9 -12 -16 -19 -16 -7 0 -19 -8 -26 -17 -13 -17 -13 -17 6
-3 19 14 19 14 6 -3 -11 -14 -17 -15 -28 -5 -11 9 -13 8 -11 -3 2 -8 -3 -13
-11 -11 -12 3 -12 1 0 -14 13 -16 12 -16 -8 -5 -20 10 -22 9 -16 -5 4 -12 3
-15 -5 -10 -11 6 -16 -5 -13 -26 0 -3 -11 -5 -24 -3 -26 2 -61 -27 -51 -44 4
-6 -4 -8 -19 -5 -17 3 -25 0 -25 -10 0 -9 -10 -20 -21 -27 -16 -8 -18 -13 -9
-19 7 -4 10 -15 7 -24 -4 -9 1 -20 11 -25 15 -9 15 -10 -3 -11 l-20 -1 20 -9
c13 -6 15 -9 5 -9 -13 -1 -13 -3 -1 -10 8 -5 12 -18 8 -30 -3 -12 -1 -19 3
-16 5 3 14 -5 21 -17 11 -21 11 -22 -4 -9 -16 12 -16 11 -2 -22 8 -19 11 -38
7 -42 -4 -5 -1 -5 6 -1 9 5 12 -3 12 -28 0 -20 5 -36 11 -36 5 0 8 -4 5 -9 -9
-13 4 -42 15 -35 13 7 7 -19 -6 -28 -6 -5 -5 -8 4 -8 7 0 11 -6 7 -15 -3 -8 1
-21 9 -29 8 -8 15 -24 15 -35 0 -12 6 -21 13 -21 8 0 7 -3 -3 -10 -13 -8 -13
-11 -1 -22 12 -11 13 -10 6 2 -5 9 -4 12 1 7 12 -12 12 -30 -1 -39 -6 -5 -2
-8 9 -8 12 0 16 -5 13 -15 -4 -8 -2 -17 4 -21 6 -3 8 -12 5 -20 -3 -8 0 -14 6
-14 7 0 7 -4 -1 -14 -9 -11 -8 -17 7 -28 28 -19 29 -23 12 -44 -8 -10 -11 -16
-6 -12 5 4 15 1 22 -7 17 -16 19 -29 3 -19 -6 3 -5 -6 3 -22 8 -16 14 -36 13
-44 -1 -8 6 -24 16 -35 9 -11 15 -30 14 -43 -1 -17 2 -21 13 -17 11 4 12 2 4
-8 -8 -10 -8 -20 2 -39 8 -15 12 -29 8 -32 -3 -3 3 -6 14 -7 18 0 18 -1 -1 -9
-19 -8 -19 -9 -1 -9 16 -1 16 -3 6 -17 -8 -8 -9 -14 -4 -13 20 4 26 -2 15 -15
-9 -11 -9 -16 0 -22 8 -5 9 -3 4 6 -5 8 -4 11 3 6 6 -4 9 -13 5 -21 -3 -9 1
-15 8 -15 11 0 11 -3 -1 -10 -13 -9 -12 -13 9 -30 13 -11 18 -20 11 -20 -7 0
-4 -7 7 -17 10 -10 13 -14 6 -9 -18 12 -16 1 3 -18 8 -9 11 -16 4 -16 -7 0 -6
-5 2 -14 7 -8 18 -11 23 -8 6 3 4 -2 -4 -11 -9 -11 -10 -17 -2 -17 6 0 11 -9
11 -20 0 -11 5 -20 11 -20 8 0 7 -6 -2 -17 -12 -14 -12 -16 0 -8 11 6 13 4 8
-9 -4 -9 -3 -15 2 -12 10 7 21 -17 21 -45 0 -11 4 -18 9 -15 5 3 8 -7 7 -23
-1 -16 0 -29 3 -29 19 2 22 -4 10 -19 -7 -10 -10 -15 -5 -11 5 4 15 1 22 -7
17 -17 18 -29 2 -19 -7 5 -1 -8 14 -28 20 -26 24 -38 15 -47 -8 -8 -6 -11 8
-11 10 0 15 -3 12 -6 -4 -4 3 -16 15 -26 21 -18 23 -18 29 -1 6 14 8 14 9 3 2
-8 2 -18 1 -23 -1 -4 8 -2 19 5 17 11 22 10 30 -2 9 -13 10 -13 10 0 0 13 1
13 10 0 7 -11 10 -12 10 -2 0 10 4 10 16 -2 17 -18 28 -21 19 -6 -10 17 7 11
22 -7 8 -10 11 -12 7 -4 -5 11 -2 13 14 9 12 -4 20 -3 17 1 -2 4 2 8 9 8 9 0
12 -7 8 -16 -5 -14 -4 -14 13 -1 11 9 16 10 11 2 -4 -6 -2 -12 3 -12 6 0 11 4
11 10 0 6 11 5 28 -2 15 -6 42 -10 60 -9 17 1 32 -3 32 -9 0 -5 5 -10 11 -10
5 0 7 5 4 10 -8 12 17 9 26 -4 4 -4 17 -2 30 5 23 12 23 11 9 -7 -8 -10 -10
-16 -6 -12 5 4 15 3 23 -4 11 -9 12 -7 7 8 -6 15 -4 17 6 7 7 -6 19 -9 28 -6
10 4 13 2 8 -5 -4 -7 -3 -12 3 -12 5 0 12 6 15 13 5 9 7 9 12 -1 5 -10 9 -10
22 0 9 8 13 8 9 2 -4 -7 0 -14 8 -18 10 -3 15 1 16 12 1 11 4 8 9 -8 6 -19 8
-20 9 -6 1 17 3 17 24 3 16 -10 28 -12 40 -5 12 6 17 5 17 -4 0 -9 3 -9 12 0
10 10 15 7 26 -10 10 -17 12 -18 7 -4 -5 16 -3 17 10 6 12 -10 15 -9 15 6 1
18 1 18 11 1 8 -14 14 -16 25 -6 11 9 15 8 20 -5 5 -13 9 -14 21 -4 11 9 16 9
22 -1 10 -15 81 -21 82 -6 0 5 4 1 9 -10 8 -19 9 -19 9 -1 1 14 4 16 14 7 8
-6 17 -8 20 -4 4 3 7 1 7 -5 0 -7 5 -12 11 -12 5 0 7 5 3 11 -4 7 1 7 16 -1
15 -8 20 -8 16 -1 -4 6 -2 11 3 11 6 0 11 -4 11 -9 0 -5 7 -12 16 -15 8 -3 12
-2 9 4 -10 16 7 12 29 -8 13 -10 16 -11 9 -2 -9 12 -7 15 13 16 13 1 24 -2 24
-8 0 -5 -5 -6 -12 -2 -7 4 -8 3 -4 -5 6 -9 11 -9 22 0 10 8 14 8 14 0 0 -13
22 -10 32 4 5 6 8 5 8 -3 0 -8 5 -10 13 -5 19 12 68 11 57 -2 -5 -6 5 -10 31
-10 27 0 39 4 39 14 0 11 3 11 13 -3 8 -12 21 -16 39 -12 16 2 29 0 31 -7 3
-9 8 -8 20 2 13 10 17 10 17 1 0 -10 3 -10 15 0 11 10 18 9 30 -4 12 -11 21
-13 34 -6 12 6 22 5 31 -3 7 -7 10 -7 7 -2 -3 6 12 10 38 10 36 0 41 -2 32
-14 -10 -12 -9 -12 11 -2 12 6 26 9 31 6 5 -3 12 1 15 7 4 7 4 3 2 -10 -4 -20
-2 -21 11 -11 18 15 113 20 130 7 7 -6 19 -5 32 1 14 8 22 8 27 -1 4 -6 3 -8
-4 -4 -6 3 -13 3 -16 -2 -2 -4 6 -8 19 -8 13 0 21 4 19 8 -3 4 -1 8 5 8 5 0
12 -8 14 -17 4 -17 5 -17 6 0 1 15 4 16 23 6 18 -10 20 -9 14 7 -6 18 -5 18 8
1 10 -14 15 -15 19 -5 3 8 6 6 6 -6 1 -12 6 -16 17 -12 9 3 18 6 20 6 3 0 3 4
0 9 -4 5 3 7 14 4 11 -3 18 -8 15 -12 -5 -10 27 -7 43 3 7 4 12 2 12 -6 0 -10
2 -10 9 1 7 11 9 11 14 0 4 -12 7 -11 16 1 7 10 13 11 19 4 4 -5 17 -10 29
-10 17 0 19 3 11 13 -8 10 -7 12 6 7 9 -3 16 -9 16 -13 0 -10 31 -8 48 3 7 4
12 2 12 -6 0 -9 3 -9 10 2 6 9 10 10 10 3 0 -14 39 -14 59 1 11 8 13 8 7 -1
-4 -8 -2 -13 4 -13 6 0 8 -5 4 -12 -4 -7 -3 -8 5 -4 6 4 9 11 6 16 -3 4 2 10
10 14 8 3 17 1 20 -3 2 -5 16 -11 30 -13 13 -3 22 -2 20 2 -3 5 2 11 11 14 8
3 13 2 11 -2 -3 -4 2 -14 11 -22 14 -13 15 -13 10 1 -4 9 -1 16 8 16 7 0 11
-4 8 -9 -3 -4 0 -8 5 -8 6 0 11 8 11 17 0 15 2 14 15 -3 10 -14 14 -15 15 -5
0 11 4 9 15 -5 15 -18 15 -18 8 0 -4 13 -3 17 5 12 19 -12 53 -16 47 -5 -8 11
-3 11 29 -1 22 -8 26 -7 26 7 0 14 2 14 15 -3 11 -15 15 -16 15 -4 1 10 4 9
10 -5 8 -19 9 -19 9 -1 1 15 4 16 16 6 9 -7 15 -8 15 -2 0 5 10 8 22 4 16 -4
19 -2 13 9 -5 8 0 7 12 -4 11 -9 22 -14 26 -11 4 4 41 7 84 7 47 0 81 4 86 11
5 8 10 7 17 -4 9 -13 10 -13 10 0 0 13 1 13 10 0 9 -13 11 -13 20 0 9 13 11
13 20 0 9 -13 10 -13 10 0 0 13 1 13 10 0 6 -9 13 -11 18 -5 9 13 62 14 62 2
0 -5 7 -4 15 3 14 12 19 7 16 -13 -1 -5 3 -6 9 -2 6 3 7 11 4 17 -5 7 -1 9 9
5 10 -4 17 -1 17 6 0 8 3 9 8 1 10 -15 42 -25 42 -13 0 6 5 7 10 4 6 -3 10 -1
10 6 0 7 7 4 15 -7 13 -16 14 -16 9 -1 -6 15 -3 16 21 7 33 -13 38 -13 29 1
-4 7 1 7 16 -1 21 -11 22 -10 16 6 -6 15 -1 14 21 -6 15 -14 22 -18 15 -9 -10
13 -7 15 20 11 24 -4 29 -2 23 9 -8 12 -6 12 8 0 14 -11 17 -11 17 0 0 8 6 6
16 -7 8 -10 13 -14 10 -7 -4 6 -2 14 4 18 5 3 10 1 10 -6 0 -8 4 -8 15 1 12
10 15 10 15 -1 0 -11 2 -11 10 1 8 12 10 12 10 1 0 -11 3 -11 17 0 9 8 14 9
10 3 -3 -6 0 -11 8 -11 8 0 12 4 9 9 -3 4 0 8 5 8 6 0 11 -5 11 -12 0 -6 6 -4
13 7 11 14 16 15 22 5 6 -9 4 -11 -5 -5 -9 5 -11 4 -6 -4 6 -8 12 -9 20 -2 7
6 17 7 22 3 4 -4 2 1 -5 11 -17 21 -8 22 14 1 12 -13 19 -14 30 -4 12 10 15
10 16 -1 0 -8 4 -5 9 6 l9 20 0 -20 c1 -17 3 -17 11 -5 5 8 10 11 10 6 0 -5 8
-2 17 5 11 10 14 10 9 2 -9 -16 6 -17 22 -1 9 9 12 9 12 -1 0 -11 3 -11 15 -1
11 9 15 9 15 1 0 -9 5 -9 21 0 12 6 19 7 16 2 -3 -4 5 -8 18 -8 17 0 21 3 14
12 -7 7 -6 14 2 19 8 5 9 3 4 -6 -6 -10 -4 -12 8 -7 9 3 19 1 23 -5 4 -7 9 -6
15 3 7 12 9 11 9 0 0 -11 4 -10 16 5 8 10 13 13 9 7 -4 -9 1 -13 15 -13 12 0
19 4 16 8 -6 11 34 9 52 -1 7 -5 12 -4 12 2 0 6 5 11 11 11 5 0 7 -6 3 -12 -5
-8 -1 -8 10 1 15 13 19 13 27 0 7 -12 9 -11 9 3 0 9 5 20 12 24 6 4 8 3 5 -3
-4 -6 0 -16 8 -23 12 -10 16 -9 21 4 3 9 10 16 16 16 5 0 6 -6 3 -12 -4 -7 1
-4 9 6 10 13 16 15 16 7 0 -11 3 -11 15 -1 10 9 15 9 15 1 0 -6 5 -11 11 -11
5 0 7 5 3 11 -4 7 1 7 16 -1 12 -7 20 -8 16 -2 -9 14 20 22 33 9 8 -8 11 -6
12 8 1 16 3 15 9 -5 7 -21 8 -22 9 -5 1 17 3 17 11 5 8 -12 10 -12 10 5 0 17
2 17 10 5 9 -13 10 -13 10 0 0 13 1 13 11 0 8 -11 12 -12 16 -2 2 6 10 9 16 5
7 -4 22 -8 34 -9 17 -1 20 2 13 12 -9 9 -3 10 24 4 28 -6 36 -5 39 9 4 12 5
12 6 -3 1 -20 1 -20 16 0 10 13 14 14 15 5 0 -11 3 -11 15 -1 12 10 15 10 15
0 0 -9 3 -10 13 -2 7 7 30 10 51 8 25 -1 40 2 43 11 4 11 8 10 19 -4 11 -14
13 -14 9 -2 -6 16 -6 16 90 20 19 0 35 6 35 13 0 6 5 4 10 -4 9 -13 10 -13 10
0 0 9 3 11 8 5 10 -14 35 -18 26 -4 -4 8 0 9 16 4 13 -4 20 -3 17 2 -4 5 0 10
8 10 8 0 12 -4 9 -9 -10 -15 9 -8 23 10 8 9 12 12 9 5 -4 -7 1 -11 14 -10 11
1 20 5 20 10 0 5 8 3 17 -4 10 -8 14 -9 10 -2 -4 6 -3 14 2 17 5 4 12 -2 14
-11 3 -13 5 -11 7 7 1 23 2 23 10 5 5 -11 9 -14 9 -7 1 6 6 12 12 12 5 0 7 -6
3 -12 -4 -7 2 -5 13 5 18 16 22 16 36 3 13 -14 15 -13 20 6 5 17 9 19 20 9 12
-9 16 -8 21 5 5 13 9 14 20 4 12 -9 17 -7 24 7 5 10 8 26 7 36 -3 15 -1 16 12
5 15 -12 15 -11 4 10 -9 16 -9 22 0 22 8 0 8 4 -1 14 -9 12 -7 17 9 28 12 7
21 16 21 21 0 4 -4 5 -10 2 -5 -3 -10 -2 -10 3 0 6 7 13 16 16 9 3 12 11 8 18
-5 7 -9 21 -9 30 -1 13 2 15 11 7 9 -8 11 -5 7 11 -4 13 0 26 8 31 8 5 9 9 3
9 -6 0 -11 7 -11 15 0 10 4 12 11 5 13 -10 15 28 3 47 -8 13 17 36 27 26 4 -4
4 -1 1 8 -3 8 -7 31 -8 52 -3 28 0 34 9 26 10 -8 11 -3 8 20 -3 19 -1 31 6 31
6 0 8 -5 4 -12 -4 -7 -3 -8 4 -4 9 5 7 15 -6 34 -9 14 -12 23 -5 19 6 -4 14
-3 18 3 3 5 0 10 -7 10 -9 0 -9 3 2 10 11 7 11 10 2 10 -7 0 -10 5 -7 10 4 6
11 7 17 4 5 -4 5 4 -2 16 -11 21 -10 22 6 16 17 -5 17 -5 3 7 -15 11 -15 14
-1 26 13 13 13 15 -4 22 -16 6 -16 8 -2 8 22 1 32 17 17 27 -8 5 -9 3 -4 -6 6
-9 4 -11 -5 -5 -10 6 -10 10 3 20 12 9 14 14 5 23 -9 9 -9 12 1 12 7 0 9 5 6
10 -3 6 -1 10 5 10 6 0 8 5 3 13 -12 19 -13 40 -1 54 5 7 8 19 5 27 -3 8 -1
16 5 18 5 2 11 20 12 40 2 25 -1 35 -8 31 -6 -4 -5 1 2 10 8 9 10 22 6 28 -4
8 -3 9 4 5 7 -4 12 -3 12 3 0 5 -8 12 -17 14 -16 4 -16 5 1 6 15 1 16 4 6 16
-10 12 -10 15 0 15 9 0 7 7 -6 22 -17 20 -17 21 -1 9 16 -13 18 -12 13 13 -3
16 -1 24 5 20 6 -3 9 2 7 12 -2 11 -10 22 -18 26 -13 6 -12 7 2 7 17 1 19 16
5 39 -5 7 -2 14 7 18 12 5 13 10 5 25 -8 15 -6 19 8 20 16 0 16 1 -2 9 -13 6
-15 9 -5 9 13 1 13 2 0 11 -13 8 -12 10 3 10 17 0 17 1 3 16 -19 18 -21 28 -4
18 8 -5 9 -2 5 9 -4 10 -1 17 6 17 8 0 6 4 -3 10 -13 9 -13 10 0 10 13 0 13 1
0 10 -13 9 -13 10 0 10 12 0 13 2 1 9 -11 7 -11 9 0 14 12 5 12 6 0 6 -11 1
-11 4 -1 16 7 8 9 15 5 15 -4 0 -2 7 5 15 11 13 10 14 -4 9 -12 -5 -15 -2 -10
10 3 9 9 14 13 12 3 -2 6 6 6 19 0 13 -3 21 -6 19 -4 -2 -9 3 -12 11 -4 10 -1
12 10 8 13 -5 14 -3 3 17 -7 12 -7 20 -2 16 6 -3 14 -1 18 5 5 8 3 9 -6 4 -10
-6 -12 -1 -8 19 3 15 1 26 -6 26 -6 0 -4 5 4 10 10 6 11 10 3 10 -7 0 -13 5
-13 10 0 6 8 10 17 10 15 0 14 2 -3 15 -19 14 -19 14 1 15 l20 1 -20 9 c-14 6
-15 9 -5 10 12 0 11 4 -4 15 -17 13 -18 15 -3 15 20 0 22 11 5 29 -8 9 -8 11
-2 8 7 -4 15 0 18 9 5 12 2 15 -10 10 -13 -5 -14 -3 -7 6 6 7 9 21 8 30 -2 10
1 20 6 24 5 3 9 11 9 17 0 7 -4 6 -10 -3 -8 -12 -10 -10 -10 8 0 15 4 21 12
16 7 -5 8 -3 2 7 -9 14 -10 19 -13 40 0 5 -5 7 -11 4 -6 -3 -10 4 -10 17 0 13
-3 18 -8 12 -5 -9 -10 -8 -19 1 -10 11 -10 15 0 18 7 3 1 6 -13 6 -15 1 -20 4
-14 9 9 5 8 11 -2 20 -8 7 -14 10 -14 7 0 -3 -6 0 -14 7 -7 7 -11 20 -8 28 5
13 4 13 -13 0 -11 -9 -16 -10 -11 -2 4 7 2 12 -4 12 -7 0 -9 7 -6 16 3 8 2 12
-4 9 -6 -3 -10 -1 -10 4 0 6 -5 11 -12 11 -17 0 -68 51 -68 67 0 8 -5 11 -12
7 -8 -5 -9 -2 -5 10 4 9 3 14 -2 11 -5 -3 -13 0 -16 6 -4 5 -14 8 -22 4 -14
-5 -14 -3 -2 12 9 11 10 14 2 9 -7 -4 -13 -2 -13 3 0 6 -6 11 -14 11 -8 0 -18
9 -21 20 -7 22 -26 28 -22 8 2 -7 -1 -3 -7 9 -11 25 -56 50 -56 31 0 -6 -3 -8
-6 -5 -4 4 -1 13 6 22 11 13 9 15 -13 15 -17 0 -28 7 -32 20 -3 11 -15 20 -26
20 -10 0 -19 6 -19 14 0 8 -5 18 -12 22 -7 4 -8 3 -4 -4 4 -7 3 -12 -2 -12 -6
0 -13 7 -16 16 -4 9 -9 14 -13 11 -3 -4 -17 6 -31 21 -13 15 -22 22 -19 16 4
-6 0 -11 -8 -11 -8 0 -12 4 -9 9 3 5 0 15 -6 24 -10 11 -16 12 -26 3 -11 -9
-14 -7 -14 10 0 15 -6 21 -24 21 -26 0 -50 22 -38 36 4 4 -2 2 -12 -6 -11 -8
-17 -10 -13 -4 4 7 0 17 -8 24 -8 7 -15 9 -15 5 0 -3 -12 3 -26 14 -15 11 -30
18 -35 15 -5 -3 -9 -1 -9 4 0 6 -7 13 -16 16 -15 6 -15 4 -3 -11 13 -16 12
-17 -3 -4 -10 7 -18 19 -18 26 0 8 -10 12 -25 10 -14 -1 -23 0 -21 3 9 9 -22
32 -44 32 -14 0 -19 4 -14 13 5 7 1 7 -12 -3 -10 -8 -16 -11 -12 -6 10 12 -17
36 -42 36 -13 0 -19 4 -14 12 4 6 3 8 -4 4 -6 -3 -13 -2 -17 4 -3 5 -16 15
-28 20 -21 11 -21 11 -3 -4 11 -9 15 -16 9 -16 -6 0 -16 7 -23 15 -7 9 -20 13
-28 10 -9 -3 -12 0 -9 9 4 9 0 13 -11 11 -9 -1 -20 2 -24 8 -3 6 -16 11 -27
12 -12 1 -28 10 -37 21 -8 10 -13 13 -9 7 9 -19 -6 -16 -21 5 -13 16 -14 16
-8 -3 4 -15 1 -13 -10 5 -10 16 -15 19 -16 10 0 -13 -2 -13 -9 -1 -5 8 -16 11
-24 8 -11 -4 -14 -1 -11 7 8 21 -24 28 -36 8 -11 -16 -11 -16 -6 0 6 19 -20
38 -41 31 -7 -3 -20 3 -29 12 -10 9 -25 14 -36 12 -10 -3 -16 -1 -12 4 3 5 -2
9 -10 9 -9 0 -16 -5 -16 -12 0 -6 -3 -8 -6 -5 -4 4 -1 13 5 21 10 12 9 13 -8
9 -12 -3 -27 0 -34 6 -8 6 -17 8 -20 4 -4 -3 -7 -1 -7 7 0 10 -4 10 -17 -1
-11 -10 -14 -10 -9 -1 4 7 1 12 -8 12 -9 0 -16 5 -16 11 0 8 -4 8 -14 0 -11
-10 -16 -8 -24 5 -5 9 -24 19 -43 21 -18 2 -37 9 -41 16 -6 9 -8 9 -8 -1 0
-10 -3 -10 -14 0 -8 7 -13 15 -11 18 2 3 -8 6 -21 6 -23 2 -24 1 -7 -12 16
-13 15 -13 -9 -3 -15 7 -25 16 -22 20 3 5 -3 6 -12 2 -13 -5 -15 -3 -9 8 7 11
5 11 -10 -1 -11 -9 -16 -10 -11 -2 6 11 -4 15 -30 11 -4 0 -11 5 -15 13 -5 7
-9 8 -9 2 0 -6 -7 -11 -15 -11 -13 0 -12 4 2 21 17 20 17 20 1 7 -10 -7 -18
-10 -18 -5 0 5 -5 2 -10 -6 -8 -12 -10 -12 -11 5 0 11 -3 14 -6 8 -3 -10 -8
-10 -19 1 -7 8 -23 12 -34 9 -12 -3 -20 0 -20 7 0 7 -8 10 -20 7 -14 -4 -20 0
-21 11 0 11 -2 12 -6 5 -7 -18 -21 -16 -45 7 -12 10 -26 16 -32 13 -21 -13
-47 -10 -42 4 3 8 2 11 -3 8 -5 -3 -13 -1 -16 5 -5 8 -11 7 -21 -1 -10 -8 -14
-8 -14 0 0 6 -14 11 -31 11 -16 0 -28 4 -25 8 3 5 -5 8 -17 7 -12 -1 -30 5
-40 13 -9 8 -20 12 -24 9 -3 -4 -1 -7 5 -7 7 0 12 -5 12 -10 0 -7 -6 -7 -19
-1 -10 6 -21 8 -24 4 -4 -3 -9 2 -13 11 -3 9 -10 16 -16 16 -5 0 -6 -4 -3 -10
3 -6 -1 -7 -9 -4 -9 3 -14 9 -12 13 2 3 -14 7 -37 9 -23 1 -44 8 -48 14 -4 7
-8 6 -12 -3 -5 -12 -6 -12 -6 0 -1 11 -4 11 -17 0 -15 -12 -16 -11 -11 11 4
14 4 19 1 13 -3 -7 -12 -13 -20 -13 -10 0 -12 5 -8 13 5 8 2 8 -9 -2 -11 -9
-17 -10 -17 -2 0 6 -5 11 -11 11 -5 0 -7 -6 -3 -12 4 -7 -2 -5 -13 5 -11 9
-23 14 -27 10 -4 -4 -11 -1 -16 7 -6 9 -10 10 -10 3 0 -6 -8 -10 -17 -8 -10 2
-22 4 -26 4 -5 1 -6 5 -3 10 3 4 -6 6 -21 3 -18 -3 -24 -1 -19 7 9 15 -7 14
-22 -1 -9 -9 -12 -9 -12 0 0 7 -10 12 -23 12 -13 0 -29 6 -36 13 -10 10 -11 8
-6 -8 6 -19 6 -19 -8 -2 -14 17 -33 24 -23 9 3 -5 -1 -9 -9 -9 -8 0 -15 7 -15
16 0 11 -3 12 -11 4 -9 -9 -18 -7 -38 5 -25 16 -25 16 -12 -1 12 -15 12 -17
-3 -11 -9 3 -16 10 -16 15 0 5 -14 9 -31 9 -21 0 -28 -4 -23 -12 5 -9 2 -9 -9
1 -9 7 -18 10 -18 5z m999 -229 c-3 -3 -9 2 -12 12 -6 14 -5 15 5 6 7 -7 10
-15 7 -18z m-3958 -1475 c0 -5 -5 -10 -11 -10 -5 0 -7 5 -4 10 3 6 8 10 11 10
2 0 4 -4 4 -10z m6145 -820 c-3 -5 -12 -10 -18 -10 -7 0 -6 4 3 10 19 12 23
12 15 0z"/>
<path d="M3665 5920 c-3 -6 1 -7 9 -4 18 7 21 14 7 14 -6 0 -13 -4 -16 -10z"/>
<path d="M3310 5759 c0 -5 5 -7 10 -4 6 3 10 8 10 11 0 2 -4 4 -10 4 -5 0 -10
-5 -10 -11z"/>
<path d="M2890 5560 c-8 -5 -12 -12 -9 -15 4 -3 12 1 19 10 14 17 11 19 -10 5z"/>
<path d="M2440 5329 c-22 -18 -22 -19 -3 -10 12 6 25 16 28 21 9 15 3 12 -25
-11z"/>
<path d="M6747 4719 c7 -7 15 -10 18 -7 3 3 -2 9 -12 12 -14 6 -15 5 -6 -5z"/>
<path d="M6775 4690 c3 -5 8 -10 11 -10 2 0 4 5 4 10 0 6 -5 10 -11 10 -5 0
-7 -4 -4 -10z"/>
<path d="M6760 2630 c-9 -6 -10 -10 -3 -10 6 0 15 5 18 10 8 12 4 12 -15 0z"/>
</g>
</svg>
