<?xml version="1.0" standalone="no"?>
<!DOCTYPE svg PUBLIC "-//W3C//DTD SVG 20010904//EN"
 "http://www.w3.org/TR/2001/REC-SVG-20010904/DTD/svg10.dtd">
<svg version="1.0" xmlns="http://www.w3.org/2000/svg"
 width="360.000000pt" height="360.000000pt" viewBox="0 0 360.000000 360.000000"
 preserveAspectRatio="xMidYMid meet">
<metadata>
Created by potrace 1.14, written by Peter Selinger 2001-2017
</metadata>
<g transform="translate(0.000000,360.000000) scale(0.100000,-0.100000)"
fill="#000000" stroke="none">
<path d="M1781 2863 c-1 -17 16 -25 25 -12 4 7 3 9 -4 5 -5 -3 -13 0 -15 6 -4
9 -6 10 -6 1z"/>
<path d="M1726 2844 c-10 -7 -23 -11 -29 -7 -5 3 -6 -3 -2 -17 6 -19 4 -20
-12 -12 -23 12 -43 5 -36 -14 3 -8 0 -14 -6 -14 -6 0 -11 4 -11 8 0 5 -7 9
-15 9 -8 0 -11 -5 -8 -10 4 -6 0 -8 -9 -5 -8 4 -15 0 -15 -7 0 -10 5 -11 19
-4 10 6 18 6 18 1 0 -14 -43 -23 -51 -11 -4 7 -18 5 -40 -7 -19 -10 -38 -18
-43 -19 -5 0 -11 -7 -13 -15 -4 -13 -3 -13 6 0 9 13 11 13 11 -2 0 -21 -11
-23 -29 -5 -11 10 -13 9 -8 -5 8 -24 -13 -35 -28 -14 -11 15 -13 15 -19 1 -3
-9 -11 -13 -17 -9 -8 4 -9 3 -5 -5 6 -9 11 -9 22 0 8 6 14 7 14 2 0 -16 -48
-34 -56 -21 -5 7 -3 8 6 3 9 -5 11 -4 6 4 -10 16 -29 3 -22 -16 3 -8 1 -11 -4
-8 -6 3 -10 1 -10 -5 0 -6 -5 -8 -10 -5 -8 5 -7 12 2 23 7 10 1 7 -13 -6 -14
-12 -29 -19 -34 -15 -4 5 -5 2 -1 -5 6 -10 11 -10 22 -1 10 8 14 8 14 0 0 -10
-13 -15 -32 -12 -5 0 -8 -3 -8 -9 0 -5 -4 -10 -10 -10 -5 0 -7 8 -4 18 5 14 4
15 -5 2 -6 -8 -11 -10 -11 -5 0 6 -7 2 -15 -9 -8 -10 -19 -15 -26 -10 -8 4
-10 3 -5 -5 4 -6 2 -18 -4 -26 -15 -17 -30 -20 -30 -4 0 5 4 8 9 4 5 -3 12 -1
15 4 4 5 2 12 -2 15 -5 3 -22 -10 -38 -29 -16 -19 -33 -35 -38 -35 -4 0 -3 7
4 15 8 9 8 15 2 15 -6 0 -14 -9 -17 -20 -7 -21 -62 -56 -73 -46 -3 3 0 6 6 6
7 0 12 5 12 10 0 21 -18 9 -30 -20 -7 -16 -16 -30 -21 -30 -13 0 -11 14 4 29
6 7 -6 2 -28 -10 -22 -13 -43 -27 -46 -32 -4 -5 -12 -6 -19 -2 -8 5 -11 4 -6
-3 3 -6 -2 -13 -13 -17 -16 -5 -32 -27 -32 -45 0 -3 -8 -14 -17 -25 -17 -20
-17 -20 5 -1 13 10 20 23 16 29 -3 6 -1 7 5 3 9 -5 9 -13 0 -29 -7 -12 -12
-24 -13 -27 -1 -15 -46 -80 -55 -80 -6 0 -9 -4 -6 -8 3 -5 -10 -23 -28 -41
-24 -24 -36 -29 -41 -20 -6 8 -4 10 5 4 9 -5 11 -4 6 3 -9 15 -11 15 -27 -5
-10 -11 -10 -14 -1 -9 7 4 12 2 12 -5 0 -6 -8 -9 -20 -6 -11 3 -23 1 -26 -4
-3 -5 -9 -7 -14 -4 -4 3 -11 -2 -14 -11 -3 -8 -10 -13 -15 -9 -5 3 -12 1 -16
-5 -4 -6 -10 -8 -15 -5 -4 3 -11 -2 -14 -10 -4 -12 -2 -13 13 -6 10 6 22 7 26
3 5 -4 5 0 0 8 -5 8 -5 12 0 8 4 -4 20 2 36 12 17 13 30 16 34 10 3 -5 -1 -10
-9 -10 -8 0 -22 -7 -30 -16 -9 -8 -25 -17 -36 -19 -11 -2 -25 -7 -30 -10 -18
-11 -51 -14 -45 -4 4 5 10 7 14 5 4 -3 8 1 8 8 0 11 -5 11 -25 0 -14 -7 -30
-10 -35 -7 -6 3 -7 1 -3 -6 4 -6 12 -9 17 -6 5 4 9 2 9 -4 0 -5 -8 -9 -17 -9
-10 1 -33 -2 -50 -6 -22 -5 -33 -4 -33 4 0 6 4 9 9 5 5 -3 12 -1 15 4 4 5 -2
8 -11 7 -9 -2 -19 -8 -21 -14 -2 -7 -13 -11 -25 -11 -17 1 -18 2 -5 6 10 2 18
9 18 14 0 6 -6 7 -16 1 -9 -5 -26 -8 -38 -5 -19 3 -20 3 -2 -5 24 -11 11 -19
-29 -17 -19 1 -37 -6 -47 -18 -27 -30 -22 -34 7 -7 14 13 25 19 25 14 0 -5
-10 -16 -22 -24 -12 -8 -32 -25 -45 -37 -13 -13 -28 -23 -33 -23 -4 0 -11 -6
-13 -12 -4 -10 -6 -10 -6 -1 -1 6 7 18 17 25 9 7 24 22 32 33 8 11 -2 5 -21
-13 -19 -18 -39 -29 -43 -25 -4 4 -4 0 -1 -9 4 -10 -4 -26 -20 -42 -32 -32
-39 -33 -25 -3 11 21 11 22 -5 2 -9 -11 -18 -19 -21 -17 -9 6 -39 -17 -31 -24
4 -4 14 1 22 12 11 14 14 15 14 4 -1 -22 -66 -74 -75 -59 -5 8 -3 9 6 4 9 -6
11 -4 5 5 -6 9 -4 11 5 5 9 -6 11 -4 5 5 -6 9 -4 11 5 5 9 -6 11 -4 5 4 -5 9
-13 7 -31 -10 -24 -23 -32 -35 -15 -25 5 3 11 -2 14 -12 2 -9 8 -25 12 -34 4
-11 3 -18 -5 -18 -6 0 -9 3 -6 8 2 4 -2 16 -10 27 -12 16 -14 17 -14 2 0 -9 5
-17 11 -17 5 0 8 -4 4 -9 -3 -6 4 -15 15 -21 11 -6 20 -16 20 -22 0 -7 -5 -7
-14 1 -12 10 -14 9 -11 -6 2 -10 4 -20 6 -23 1 -3 3 -9 3 -15 1 -5 8 -21 16
-35 7 -14 13 -26 12 -27 -6 -9 0 -23 9 -23 8 0 8 5 -1 15 -7 8 -9 15 -6 15 4
0 1 10 -6 23 -14 27 -18 57 -6 57 4 0 8 -9 8 -21 0 -11 4 -28 10 -38 5 -10 11
-30 14 -44 4 -21 1 -25 -12 -19 -14 5 -15 4 -2 -10 8 -9 20 -13 25 -10 6 3 7
2 3 -3 -4 -4 -3 -14 3 -22 6 -7 8 -13 4 -13 -4 0 -2 -7 5 -15 7 -8 9 -15 5
-15 -4 0 -2 -7 5 -15 7 -8 10 -15 6 -15 -3 0 -1 -11 4 -25 6 -16 6 -27 -2 -31
-6 -4 -8 -3 -4 4 3 6 2 13 -3 17 -12 7 -4 -42 10 -64 8 -13 9 -11 4 6 -3 12
-1 24 7 29 7 4 10 4 6 -1 -4 -4 -2 -15 4 -23 10 -11 8 -17 -7 -28 -10 -8 -14
-14 -9 -14 6 0 11 -6 12 -12 0 -7 3 -24 7 -38 4 -14 7 -31 7 -37 1 -7 5 -13
10 -13 5 0 6 10 3 23 -6 18 -5 20 6 9 8 -7 15 -17 15 -22 1 -6 2 -11 4 -12 2
-3 6 -18 14 -57 3 -12 10 -29 16 -37 13 -15 4 -38 -11 -28 -6 3 -3 -11 6 -33
9 -21 18 -46 20 -57 6 -26 11 -30 19 -11 4 11 2 14 -7 9 -6 -4 -9 -4 -5 1 4 4
3 16 -3 27 -15 27 -20 60 -8 53 5 -4 9 -10 9 -15 0 -5 5 -21 11 -37 6 -15 10
-30 11 -33 0 -3 4 -11 10 -17 6 -7 8 -13 5 -13 -3 0 1 -16 8 -34 11 -26 12
-37 3 -42 -6 -4 -8 -3 -4 4 3 6 2 13 -3 17 -14 8 -5 -31 12 -55 12 -17 16 -18
20 -6 7 18 42 14 41 -6 -1 -9 9 -15 30 -15 17 -1 47 -4 66 -8 19 -4 33 -4 30
-2 -8 8 -61 19 -87 19 -13 0 -23 5 -23 10 0 9 9 9 89 -7 14 -2 28 -10 32 -17
4 -6 15 -13 23 -14 9 -1 14 2 10 7 -3 5 -10 7 -15 4 -5 -4 -9 -2 -9 4 0 5 16
9 35 8 19 -1 35 -6 35 -11 0 -4 -6 -6 -13 -3 -8 3 -14 -1 -14 -9 0 -12 5 -11
25 2 20 13 24 13 20 2 -4 -9 1 -14 13 -14 12 0 15 4 8 12 -7 8 -2 10 17 6 19
-3 22 -7 12 -13 -7 -5 -8 -9 -3 -9 6 0 17 6 24 13 11 10 13 9 8 -5 -4 -11 -1
-15 11 -13 9 1 21 -3 25 -9 6 -7 7 -4 3 7 -5 16 -1 17 41 11 26 -3 65 -8 87
-10 23 -2 61 -6 86 -10 25 -3 55 -5 68 -5 12 1 22 -4 22 -10 0 -5 -6 -7 -12
-3 -7 4 -9 3 -5 -1 10 -11 39 -16 32 -5 -3 4 2 11 11 14 12 4 15 2 11 -9 -8
-19 11 -31 26 -16 9 9 7 10 -7 5 -13 -5 -17 -4 -13 3 10 16 76 10 87 -7 8 -13
10 -13 10 1 0 12 7 15 28 11 15 -3 30 -9 33 -14 3 -5 28 -10 55 -11 27 -1 52
-6 55 -11 4 -4 10 -3 13 3 8 12 9 12 -57 15 -77 4 -64 13 18 12 41 -1 75 -4
75 -8 0 -5 -5 -8 -12 -8 -6 0 -8 -3 -4 -7 8 -9 186 -12 186 -4 0 4 -38 6 -84
6 -47 -1 -83 2 -80 6 2 4 54 5 116 2 62 -2 125 -4 141 -4 32 1 45 1 115 -1 28
-1 52 -5 52 -9 0 -4 -9 -6 -20 -4 -11 2 -22 1 -24 -3 -3 -4 10 -8 29 -8 19 0
31 5 29 11 -3 7 14 11 46 11 47 0 66 -9 38 -18 -7 -3 13 -4 44 -4 31 1 54 4
51 9 -2 4 -8 5 -13 2 -5 -3 -11 -1 -15 5 -4 6 4 9 19 8 14 -1 28 -9 31 -18 6
-13 8 -13 20 3 9 12 22 17 41 14 16 -2 35 0 42 6 8 6 12 6 12 -2 0 -11 -15
-15 -35 -11 -5 1 -7 -2 -2 -6 10 -10 47 -13 41 -3 -2 4 6 13 18 20 22 12 22
11 8 -6 -13 -17 -13 -18 1 -13 9 4 21 2 27 -4 6 -6 12 -6 16 1 4 5 14 8 24 5
14 -5 14 -4 2 4 -9 7 -18 8 -26 1 -8 -7 -14 -6 -19 1 -3 5 0 10 7 11 7 0 23 2
36 3 12 2 22 -3 22 -9 0 -12 64 -14 76 -3 3 4 -8 5 -25 3 -17 -2 -34 1 -37 7
-4 7 -3 8 4 4 6 -4 20 -2 31 4 12 6 22 6 26 1 3 -5 17 -8 30 -5 59 10 84 11
88 0 2 -6 20 -11 40 -11 19 -1 34 2 31 7 -2 4 -18 5 -34 3 -17 -2 -30 0 -30 5
0 4 17 8 38 8 20 0 61 2 90 5 43 4 52 2 53 -12 0 -10 2 -11 6 -3 2 6 9 10 14
7 5 -4 6 0 4 7 -4 9 2 14 15 14 11 0 20 -4 20 -8 0 -4 -4 -8 -10 -8 -5 0 -10
-5 -10 -11 0 -8 4 -8 13 -1 6 5 24 9 40 7 15 -2 27 1 27 7 0 5 -9 7 -19 3 -11
-3 -22 -2 -25 3 -5 8 18 11 114 17 25 1 46 4 48 5 7 7 28 4 34 -4 8 -12 60
-17 52 -5 -2 4 -13 6 -24 4 -11 -2 -20 0 -20 5 0 5 8 9 18 8 9 0 32 2 50 5 22
3 38 -1 49 -12 16 -15 16 -15 10 2 -3 9 -3 17 1 18 4 0 16 2 27 4 11 2 42 6
68 9 26 3 52 8 57 11 6 4 10 2 10 -4 0 -5 -6 -11 -12 -14 -7 -2 0 -4 15 -4 16
0 31 6 34 13 3 8 10 14 15 14 6 0 7 -7 4 -16 -3 -8 -2 -12 4 -9 6 3 10 12 10
18 0 7 10 14 23 15 63 8 82 6 80 -5 -3 -13 22 -8 43 8 6 5 13 7 16 4 2 -3 5 2
5 10 0 8 -7 15 -16 15 -13 0 -13 2 -3 9 8 4 13 10 11 12 -7 11 26 116 40 126
9 7 11 13 5 13 -23 0 7 135 36 158 13 11 13 11 -2 6 -25 -9 -22 9 4 25 19 12
19 14 6 22 -9 5 -15 17 -13 27 2 9 4 25 4 36 1 14 4 16 14 8 10 -8 13 -6 13 7
0 10 -5 17 -12 14 -7 -3 -10 5 -7 24 2 15 5 38 6 51 0 12 8 22 17 23 10 0 11
2 3 6 -14 5 -18 83 -5 83 5 0 8 -16 7 -35 -2 -19 0 -33 4 -31 3 2 6 26 6 53 0
26 4 52 10 56 6 5 4 7 -5 4 -8 -2 -13 -12 -12 -23 2 -10 1 -16 -3 -12 -4 3 -8
18 -9 33 -3 19 0 25 11 21 8 -3 11 -1 8 4 -3 6 0 10 7 10 9 0 9 3 -2 10 -15 9
-24 97 -10 105 4 2 6 -7 4 -20 -1 -14 2 -23 7 -20 13 8 5 45 -12 56 -10 8 -8
9 9 4 13 -4 22 -2 22 4 0 6 -6 10 -12 9 -9 -2 -14 13 -16 45 -2 26 1 47 6 47
5 0 7 -19 5 -42 -3 -24 -2 -40 1 -38 3 3 7 23 9 44 3 26 0 39 -9 43 -16 6 -19
43 -3 43 5 0 8 -4 4 -9 -3 -5 -1 -12 4 -15 5 -4 8 2 7 11 -2 9 -8 19 -14 21
-7 2 -12 8 -12 13 0 4 6 6 13 3 8 -3 14 2 14 10 0 8 -6 12 -14 9 -8 -3 -13 -2
-12 3 5 27 -2 64 -11 59 -5 -3 -10 -2 -10 4 0 5 6 12 13 15 6 3 2 3 -9 1 -14
-4 -24 0 -27 9 -4 11 -1 13 11 10 14 -5 14 -4 -1 6 -10 7 -21 9 -24 6 -8 -8
-42 38 -46 60 -3 21 -15 30 -25 18 -4 -4 -2 -5 3 -1 6 3 11 -3 12 -13 1 -15
-2 -14 -23 7 -26 26 -33 43 -9 23 31 -26 13 2 -26 40 -35 34 -44 38 -57 28
-13 -11 -15 -10 -10 9 4 13 1 26 -4 30 -6 3 -8 1 -4 -5 3 -6 2 -13 -3 -16 -5
-3 -12 5 -15 19 -4 14 -13 25 -22 25 -8 0 -13 4 -10 8 3 5 -2 9 -11 9 -11 0
-7 -7 13 -23 15 -13 25 -26 21 -30 -4 -4 -7 -3 -7 2 0 5 -13 18 -30 27 -17 11
-27 23 -24 32 3 7 -3 18 -15 24 -25 14 -31 14 -31 0 0 -5 5 -7 12 -3 7 4 8 3
4 -4 -4 -7 -19 -3 -43 13 -20 14 -39 25 -43 25 -4 0 -11 8 -14 17 -6 15 -5 15
11 1 35 -30 46 -33 33 -8 -6 12 -14 19 -17 16 -3 -3 -14 1 -25 8 -11 8 -28 12
-39 9 -11 -3 -19 0 -19 6 0 7 6 9 13 5 6 -4 4 1 -5 12 -12 12 -29 17 -53 16
-30 -2 -35 0 -36 20 0 13 -3 17 -6 11 -6 -16 -33 -17 -33 -2 0 5 5 7 10 4 6
-3 10 -2 10 3 0 15 -28 23 -36 10 -5 -7 -2 -8 6 -3 9 5 11 4 6 -4 -10 -15 -29
-3 -22 15 3 8 2 13 -2 13 -21 -3 -32 2 -26 13 5 7 3 8 -6 3 -10 -6 -9 -11 5
-22 25 -18 5 -17 -21 2 -12 8 -25 11 -29 7 -5 -4 -5 -1 -1 6 4 7 12 10 17 7 5
-4 9 -1 9 4 0 14 -6 14 -31 1 -13 -7 -19 -7 -19 0 0 5 5 10 12 10 15 0 4 11
-14 14 -7 1 -24 8 -37 15 -13 7 -21 8 -17 3 4 -6 -2 -10 -14 -9 -20 1 -27 12
-12 20 4 2 0 2 -8 0 -32 -9 -60 -5 -60 8 0 5 5 7 10 4 11 -7 14 8 3 18 -3 4
-12 -1 -20 -11 -13 -16 -13 -16 -11 3 2 12 -3 20 -12 20 -8 0 -19 5 -23 10 -5
6 -7 4 -4 -5 2 -8 13 -14 23 -12 14 3 16 1 8 -8 -8 -8 -17 -9 -30 -2 -26 14
-58 25 -66 24 -4 -1 -4 6 -1 16 6 15 5 15 -11 3 -14 -12 -19 -12 -29 -1 -9 9
-9 11 0 6 6 -3 14 -2 17 3 6 10 -19 9 -29 -1 -9 -8 -45 2 -45 13 0 11 22 7 33
-6 5 -6 7 -4 4 5 -2 9 -13 14 -28 12 -42 -5 -62 -3 -72 7 -11 11 11 10 30 -2
6 -4 15 -2 19 4 4 7 3 9 -4 5 -6 -3 -13 -2 -16 3 -7 10 -25 9 -43 -2 -7 -4
-21 -3 -31 2 -11 6 -22 7 -26 4 -3 -3 -6 -1 -6 6 0 7 7 11 15 8 8 -4 16 -3 19
1 3 4 -4 8 -14 9 -11 1 -22 -2 -25 -6 -6 -10 -55 -2 -55 9 0 10 19 8 40 -4 12
-7 13 -7 2 5 -7 8 -21 14 -30 15 -9 0 -26 5 -36 9 -13 6 -21 5 -24 -3 -2 -7
-8 -12 -13 -12 -6 0 -8 4 -5 9 3 5 -2 15 -12 22 -15 13 -16 12 -4 -3 9 -11 10
-18 2 -23 -5 -3 -10 -1 -10 4 0 6 -3 10 -7 10 -26 -4 -43 2 -37 14 5 7 0 6
-11 -3 -17 -14 -18 -13 -12 3 5 15 4 16 -13 7 -24 -13 -30 -13 -30 1 0 5 4 8
9 4 5 -3 12 -1 15 4 4 5 -2 8 -11 6 -10 -1 -22 0 -28 4 -18 10 -44 11 -50 1
-3 -6 -15 -6 -29 0 -13 5 -27 6 -32 2 -4 -4 -4 2 0 13 4 11 4 16 0 13 -4 -4
-15 -3 -25 3 -12 6 -19 6 -19 0 0 -5 8 -12 18 -15 9 -2 4 -4 -12 -3 -17 1 -31
9 -33 17 -4 13 -3 13 6 0 7 -9 11 -10 11 -3 0 19 -20 26 -26 9 -6 -15 -30 -14
-61 2 -13 7 -24 6 -37 -4z m12 -18 c-12 -7 -25 -11 -27 -9 -8 6 34 31 42 26 5
-3 -2 -11 -15 -17z m278 -29 c4 -4 -2 -7 -14 -7 -11 0 -24 5 -27 10 -7 11 30
8 41 -3z m-456 -45 c0 -10 -50 -35 -57 -28 -3 2 8 11 24 20 34 18 33 18 33 8z
m656 -10 c1 -7 0 -8 -3 -2 -2 5 -9 8 -14 4 -5 -3 -9 0 -9 6 0 15 23 7 26 -8z
m-966 -146 c0 -8 -7 -16 -15 -20 -12 -4 -13 -2 -2 14 14 24 17 25 17 6z m1525
-36 c4 -6 11 -7 17 -4 6 4 8 2 5 -4 -8 -12 -47 -4 -47 9 0 12 17 11 25 -1z
m-1817 -123 c-33 -27 -88 -60 -88 -53 0 5 102 76 110 75 3 0 -7 -10 -22 -22z
m2084 -1 c7 4 8 2 4 -4 -4 -6 -13 -9 -21 -6 -8 4 -12 11 -8 17 5 8 8 7 11 -1
2 -7 9 -9 14 -6z m188 -116 c0 -5 -4 -10 -10 -10 -5 0 -10 5 -10 10 0 6 5 10
10 10 6 0 10 -4 10 -10z m167 -130 c6 -8 10 -17 8 -19 -5 -4 -55 46 -55 55 0
8 31 -16 47 -36z m-3216 -877 c5 -15 6 -30 1 -35 -5 -5 -9 -3 -10 4 0 7 -3 23
-6 36 -7 30 2 28 15 -5z m3349 -63 c0 -5 -5 -10 -11 -10 -5 0 -7 5 -4 10 3 6
8 10 11 10 2 0 4 -4 4 -10z m-3200 -366 c0 -8 -4 -12 -10 -9 -5 3 -10 10 -10
16 0 5 5 9 10 9 6 0 10 -7 10 -16z m3101 -17 c-7 -7 -14 -8 -21 -1 -6 6 -2 10
12 11 16 2 18 -1 9 -10z m-181 -27 c0 -5 -4 -10 -10 -10 -5 0 -10 5 -10 10 0
6 5 10 10 10 6 0 10 -4 10 -10z m-1280 -98 c0 -5 -7 -9 -15 -9 -8 0 -15 4 -15
9 0 4 7 8 15 8 8 0 15 -4 15 -8z"/>
<path d="M2115 2780 c3 -5 8 -10 11 -10 2 0 4 5 4 10 0 6 -5 10 -11 10 -5 0
-7 -4 -4 -10z"/>
<path d="M1430 2700 c0 -5 5 -10 11 -10 5 0 7 5 4 10 -3 6 -8 10 -11 10 -2 0
-4 -4 -4 -10z"/>
<path d="M2540 2666 c0 -3 9 -10 20 -16 11 -6 20 -8 20 -6 0 3 -9 10 -20 16
-11 6 -20 8 -20 6z"/>
<path d="M1070 2520 c-8 -15 -8 -18 3 -14 8 3 14 11 14 19 0 20 -4 19 -17 -5z"/>
<path d="M3170 2359 c0 -5 5 -7 10 -4 6 3 10 8 10 11 0 2 -4 4 -10 4 -5 0 -10
-5 -10 -11z"/>
<path d="M815 2293 c-27 -30 -31 -43 -14 -43 5 0 7 5 4 10 -3 6 -3 10 2 10 9
1 47 50 39 50 -3 0 -17 -12 -31 -27z"/>
<path d="M765 2231 c3 -5 -1 -12 -7 -14 -8 -4 -7 -6 4 -6 23 -1 32 15 12 23
-8 3 -13 2 -9 -3z"/>
<path d="M3486 2106 c3 -8 13 -17 22 -21 13 -5 13 -2 -3 15 -21 24 -26 25 -19
6z"/>
<path d="M3580 2005 c0 -5 5 -17 10 -25 5 -8 10 -10 10 -5 0 6 -5 17 -10 25
-5 8 -10 11 -10 5z"/>
<path d="M150 1929 c0 -5 5 -7 10 -4 6 3 10 8 10 11 0 2 -4 4 -10 4 -5 0 -10
-5 -10 -11z"/>
<path d="M3573 1665 c0 -8 4 -15 9 -15 4 0 8 4 8 9 0 6 -4 12 -8 15 -5 3 -9
-1 -9 -9z"/>
<path d="M89 1521 c6 -10 7 -21 4 -25 -3 -3 -1 -6 5 -6 15 0 11 38 -5 45 -10
3 -11 0 -4 -14z"/>
<path d="M106 1472 c-3 -5 1 -15 8 -21 11 -10 14 -9 12 3 -3 21 -13 29 -20 18z"/>
<path d="M3546 1395 c-3 -8 0 -17 6 -21 6 -4 8 -3 4 4 -3 5 -1 12 6 14 8 3 9
6 1 11 -6 4 -13 0 -17 -8z"/>
<path d="M3535 1300 c-3 -5 -1 -10 4 -10 6 0 11 5 11 10 0 6 -2 10 -4 10 -3 0
-8 -4 -11 -10z"/>
<path d="M193 1200 c1 -11 5 -20 9 -20 4 0 5 -6 2 -14 -3 -8 0 -17 5 -21 6 -3
9 -10 7 -14 -3 -4 1 -8 9 -8 13 0 13 3 1 16 -7 9 -14 24 -15 34 -3 39 -5 47
-12 47 -4 0 -7 -9 -6 -20z"/>
<path d="M3510 1140 c-6 -11 -8 -25 -5 -30 3 -6 2 -10 -4 -10 -5 0 -8 -7 -7
-15 3 -19 12 -28 14 -12 3 33 10 65 16 75 4 7 5 12 2 12 -3 0 -10 -9 -16 -20z"/>
<path d="M3485 1010 c-5 -9 -8 -19 -18 -65 -2 -5 -6 -15 -10 -22 -4 -6 -3 -15
3 -18 6 -4 10 -3 9 2 -1 4 0 10 1 13 2 6 7 25 14 58 3 12 8 27 11 32 3 6 4 10
1 10 -3 0 -8 -4 -11 -10z"/>
<path d="M274 979 c-3 -6 2 -18 12 -27 17 -16 17 -16 5 0 -7 9 -10 22 -6 28 3
5 4 10 1 10 -3 0 -8 -5 -12 -11z"/>
<path d="M346 858 c3 -5 10 -6 15 -3 13 9 11 12 -6 12 -8 0 -12 -4 -9 -9z"/>
<path d="M3338 849 c-6 -4 -15 -6 -19 -3 -4 2 -10 0 -14 -5 -3 -6 4 -8 17 -5
13 3 28 6 35 8 7 1 15 4 18 7 8 9 -23 7 -37 -2z"/>
<path d="M3146 822 c-4 -3 -20 -6 -36 -7 -16 -1 -32 -4 -36 -7 -8 -8 60 -3 73
5 6 4 18 4 27 1 9 -3 16 -2 16 3 0 10 -35 15 -44 5z"/>
<path d="M2990 800 c0 -5 5 -10 11 -10 5 0 7 5 4 10 -3 6 -8 10 -11 10 -2 0
-4 -4 -4 -10z"/>
<path d="M795 790 c26 -11 35 -12 35 -2 0 4 -12 8 -27 9 -24 1 -25 1 -8 -7z"/>
<path d="M849 789 c-10 -6 -7 -8 11 -5 14 2 33 -1 44 -6 10 -6 22 -6 27 -1 5
5 1 9 -9 10 -9 0 -26 3 -38 6 -11 3 -27 1 -35 -4z"/>
<path d="M2886 791 c-4 -5 -2 -12 3 -15 5 -4 12 -2 15 3 4 5 2 12 -3 15 -5 4
-12 2 -15 -3z"/>
<path d="M950 780 c0 -6 7 -10 15 -10 8 0 15 2 15 4 0 2 -7 6 -15 10 -8 3 -15
1 -15 -4z"/>
<path d="M2790 780 c-12 -7 -10 -9 7 -7 12 0 19 5 17 9 -6 10 -6 10 -24 -2z"/>
<path d="M1110 760 c0 -5 5 -10 11 -10 5 0 7 5 4 10 -3 6 -8 10 -11 10 -2 0
-4 -4 -4 -10z"/>
<path d="M2590 762 c0 -4 11 -8 25 -8 28 0 24 8 -5 13 -11 2 -20 -1 -20 -5z"/>
<path d="M1180 756 c0 -2 9 -6 20 -9 11 -3 18 -1 14 4 -5 9 -34 13 -34 5z"/>
<path d="M2408 752 c-10 -2 -18 -8 -18 -13 0 -6 7 -6 18 0 13 7 23 6 30 -1 8
-8 12 -9 12 -1 0 14 -19 21 -42 15z"/>
<path d="M2556 748 c3 -5 10 -6 15 -3 13 9 11 12 -6 12 -8 0 -12 -4 -9 -9z"/>
<path d="M1691 743 c-1 -6 -12 -10 -26 -9 -13 2 -22 0 -20 -5 7 -10 62 -6 72
6 4 4 3 5 -4 2 -6 -4 -14 -1 -16 5 -4 9 -6 9 -6 1z"/>
<path d="M1570 736 c0 -2 13 -6 29 -8 17 -2 28 -1 25 4 -5 8 -54 12 -54 4z"/>
<path d="M1736 732 c-3 -5 1 -9 9 -9 8 0 12 4 9 9 -3 4 -7 8 -9 8 -2 0 -6 -4
-9 -8z"/>
<path d="M1855 730 c-2 -3 5 -6 15 -7 11 -1 22 2 24 5 3 4 -4 8 -15 8 -11 0
-22 -3 -24 -6z"/>
<path d="M2070 732 c0 -5 7 -9 15 -9 8 0 12 4 9 9 -3 4 -9 8 -15 8 -5 0 -9 -4
-9 -8z"/>
</g>
</svg>
